<svg xmlns="http://www.w3.org/2000/svg" width="750" height="750" fill="#000000" viewBox="0 0 750 750"><path d="m600 158 2 1-5 8-2-1z"/><path d="M591 153h2c1.361 6.31 1.361 6.31-.438 9.75L591 165v3l3 1-1 4c1.448-1.448 1.557-3.04 2-5h3l1-2 4 2-.625-2.812C602 162 602 162 604 159c2.895 4.737 2.895 4.737 3.875 7.188 1.563 2.518 3.366 2.941 6.125 3.812v-2l4 1-.625 2.875L617 175l2 2h3v3l2-1v-3h2v8l3-3c3 6.625 3 6.625 3 10l2-1v-4h2l.938 3.312A168 168 0 0 0 639 196v1l2 3h3l-1 3 1.312-1.5C646 200 646 200 649 200l-1 5h3l-1 4h2l-1 3.25c-1 3.75-1 3.75-1 7.75l2 3c3.113 0 5.108-.174 8-1l.438 1.875C661 226 661 226 662 228h-2c1.75 4.875 1.75 4.875 4 6v5h2v7l-2 1 4 4-1-5 2 1v2h2v3l2 1c0 4 0 4-1 6h-1l1 7 .938-2.375C674 261 674 261 675 259l2 1-1 6 5-1-1.562-3.312C678 258 678 258 679 255c5.632 5.199 5.632 5.199 6 9v4l4-2 1 2h-2l1 4h-3c-.981 3.053-.981 4.947 0 8l1-2h2v3l2 1 1 3 1-4c2.062 1.625 2.062 1.625 4 4-.25 3.25-.25 3.25-1 6l3 1c.179 3.947.094 6.598-2 10l3 1-1-3 1-3h4l1 5h2v9l2-4-1-2a141 141 0 0 1 2-7h4c0 2.797-.435 5.245-1 8h3l1 3v-6l-2-1 1-4h4v13l2 1-1 2h-2v3l1-2h2l-2 5h2c1.687 1.687 1.687 1.687 3 4-.312 2.75-.312 2.75-1 5h2l.375-1.875C727 325 727 325 729 323l2 4h3c1.688 1.5 1.688 1.5 3 3l1-4h5l-1-2-1.75.75-2.25.25c-2.25-1.938-2.25-1.938-4-4h2l1-2 2 1-1-5 2-1 2 7 2-1 2 6 4-1v75l-2 1 1 3v4h-2l-1 2 .25-2.25c-.321-3.532-1.603-4.516-4.25-6.75l-2 1h-1l-.75 1.875c-1.456 2.476-2.628 3.076-5.25 4.125l-1-6h-2l2-6-2-2-.375 3.188c-.536 3.272-1.264 5.817-2.625 8.812-1.858-3.135-2.201-5.375-2-9l-5 1v2l-6 2-3-6h-3v-2h-3l-1-2-3 6h-1l-.312-3.375L699 391l-3-2 .562 2.812C697 395 697 395 696 398h-2l-1-9h-2l-1 3-1-3-1-2-1 3c-3.062 1.188-3.062 1.188-6 2l1-3h-3l-1 3h2l1 3-3 3-1-3-2-1c.875-4.75.875-4.75 2-7-2.248 2.052-3.002 3.007-4 6h-2l-1-2-3 1c-.625 1.937-.625 1.937-1 4l-1 2h-2l-1-9v8l-6 1-1-6-1 5-1-2c-2.523 1.974-2.993 2.967-3.688 6.188L649 404c-1.648-2.967-2.443-5.656-3-9l-4-1-1 2q-2.478 1.054-5 2l-1 1 2 2v3h-3l-1 3v-2l-3 1c-.286 7.429-.286 7.429 2 11h-2v-2l-2 1c-.625 2.563-.625 2.563-1 5h-1l-.684-6.055C625 413 625 413 624 411h3l-2-9c-1 1-1 1-1.062 4.562L624 410h-4l2 5-2 1v-2h-2l-1-3-1-1 1-3-2-1v-5h2l-2-4 1-1a67 67 0 0 0-.438-4.562l-.308-2.504L615 387c-3.08 5.421-3.08 5.421-2.688 8.25L613 397c0 4.185-1.663 8.078-3 12l-3-1 .5-2.312C608 403 608 403 608 400a91 91 0 0 0-4-4l-1-2-3-1v-5l-1 3h-3l-1 2 1-6c-3.201-1.6-5.723-.032-9 1v6l-3-3v4h-2l-2 6c-1.023-3.148-.933-4.989.062-8.125L581 389l-2-2 .691-1.574c1.738-4.215 2.768-6.916 1.309-11.426v-2h-2l1 4h-2l-2 4-2-1v4l2-1-.062 3.375C576 389 576 389 577 391c-.938 2.125-.938 2.125-2 4v-2h-4c-.125-5.75-.125-5.75 1-8-.409-2.222-.9-4.43-1.438-6.625l-.871-3.602L569 372l-1 1-3-1-1-4v14h-2v2l-2-1 .562-1.875C561 379 561 379 560 377l-3-1 .562-1.562c.592-3.297.005-6.16-.562-9.438l.125 2.875C557 371 557 371 555 373l-3-1-1 2c-1.875.812-1.875.812-4 1-1.652-1.195-1.652-1.195-3-3-.074-2.262-.074-2.262.312-4.688l.364-2.449L545 363l-7 3-1-4h2c.196-4.219-.198-7.17-2-11l.688 3.688c.521 3.973.521 3.973-1.188 6.75-2.26 3.861-1.272 7.291-.5 11.562l-2 1c-2-3-2-3-3-5a93 93 0 0 1 1-4v-3l-2-1c-1.276-3.247-.832-5.67 0-9h2a495 495 0 0 0-.375-5.438l-.211-3.058L531 341l-2-1 2 6-2 2c-2.402-4.804-2.611-9.731-3-15h-3v2h3l-.688 3.812c-.292 2.227-.292 2.227-.312 4.188 1.5 1.688 1.5 1.688 3 3-.062 2.562-.062 2.562-1 5-2.062 1.312-2.062 1.312-4 2l1 3h-2l.688 1.75c.312 2.25.312 2.25-.938 4.5L520 364h-3l.562-2.188c.465-2.989.096-4.888-.562-7.812a98 98 0 0 1 0-5h2v-2l-5-1 2 5-2 1-1-4h-2l-1-2c-4.592 8.262-4.592 8.262-4 13l-4 2-1-2h2v-2h-2l-.84-1.934-1.098-2.504-1.089-2.496C497 348 497 348 496 347l-2 4h-2c-.25-2.25-.25-2.25 0-5 2-2.312 2-2.312 4-4l-5 1c-1.101 3.303-.951 4.716 0 8l2 1v5l-1-4-5-1 1-5h-5l-1 4h-1v4l2 1v5l-3 1v5h-2l-1-3-2-3-2 2-1.938-1C469 361 469 361 468 361v5h-3v2l3 1-6 6 2 1 1-2 2 2 2-2v4h-10l-1 7h-2a473 473 0 0 0-.562 4.75l-.317 2.672c-.116 2.462.143 4.243.879 6.578l-3-2 1 3c-.438 2.188-.438 2.188-1 4h-5l.879-5.957C449 396 449 396 448 393c-2.511 1.255-2.871 2.501-4 5h2v2l-3 1 2 2a70 70 0 0 1-1 4l1 2a65 65 0 0 1-.438 4.625l-.308 2.477L444 418l-1-2-2-1c-3-5.423-3-5.423-3-8h-2c1.875 4.75 1.875 4.75 3 7h-4l-1 2-2-5c-1.064 3.191-.89 3.934 0 7v2h-2l-1 2 1 1c-.438 2.063-.438 2.063-1 4h-1c-2.391 2.391-2.597 3.696-3 7l1 3h-3l.562 1.812C424 441 424 441 423 444h-2v-5l-2-1 .125 2.812C419 444 419 444 417 447h3l-1 3c-2.062.688-2.062.688-4 1 0 2.353 1.249 4.794 2 7l-3-1-1-2-1 2h-3l-1-3h-2l1 3c2.063.688 2.063.688 4 1v2l3 1 1 3h-2l-1 4-3-3h3v-2h-2l-1-3h-3v2h-2l-2-2v5l-1.938.75C398 467 398 467 397.25 469.125L397 471c-3-1-3-1-4-2-.562 1.937-.562 1.937-1 4l1 1 2-2 2 4-2 1 2 2-3 1-3-2-5 5 1 2-3 1-1-2-.188 3.312L382 491l-2.5 1.375C377 494 377 494 376.449 496.176A85 85 0 0 0 376 503l-4-4v2l-2 1 .188 2.812C370 508 370 508 368.5 509.875L367 511l1-6h-2v7l2 1c-.188 1.875-.188 1.875-1 4-2.562 1.25-2.562 1.25-5 2 0-9 0-9 1-11h-2l-1 2h-1v6l-5 1-1-3-.688 2.438L351 519c-2.625.812-2.625.812-5 1l-1 6h-2l-1-5-3 1v5h2l1-2c-.564 3.27-1.5 4.826-4 7l2 4-3 2 1-4-4 3-2-1 .625 1.75c.462 2.77-.196 3.896-1.625 6.25-.774-4.064-1.098-7.864-1-12l-3 2v-3h-2l1 4h-2l-1 2 5-2 1 7-2-1-1.312 1.375C324 544 324 544 321 546c-2-3-2-3-2-6l-7 6c1 2 1 2 3 3l-4 2-1-2-2-1 2-9h2v3c.553-2.076 1-3.844 1-6l-1 2h-3l-1 3-2-1 1 2 1 3-4-1v-4h-2l-.375-1.938L301 536l-2-1-1 1 2 1v4c-3 2-3 2-5 3l-1-9-1 3-2-1 .562-1.938L292 533l-1-1-1 6h-2l-1 2c-2.062.625-2.062.625-4 1-1.603-3.118-2.19-4.39-1.125-7.812L283 531h-3l1 4h-3l-1-4h-1l-1-10c-5.75 1.875-5.75 1.875-8 3v-2h-2v-2h2v-2l-3-1v-2l-1-3c-.128-2.674-.044-5.321 0-8a56.5 56.5 0 0 0-4 7v-2h-3v-2h3l-2-2-2 2a89 89 0 0 1-6 1l1.375-1.312C252 505 252 505 254 502l-2-1v-11l-.75 2.938L250 496c-2.125.875-2.125.875-4 1v-4h-2l-.367-1.863-.508-2.449-.492-2.426C242 484 242 484 240 481c.375-3.688.375-3.688 1-7h-4l.5-2.062c.571-3.354.567-6.542.5-9.938l-1 4h-2a263 263 0 0 1-3-5l-2-1v-2l2-1c-3 0-3 0-6 1v-4h2c-.537-3.377-1.111-6.697-2-10l-1 3h-2l.5-2.375C224 442 224 442 224 440h-4c1-3 1-3 2-4l-2-1-1 2v-6h-3l1-4h-3v-3h-2v-3h2l-1-10-1 1c-1.66.364-3.327.7-5 1l-.875-1.938C205 409 205 409 203 408l1 4-4 2 1-7-2-1 1-5h-2l-1.812-.625c-2.898-.497-4.575.391-7.188 1.625l-2-6-2 1 .5 2.25c.5 2.75.5 2.75.5 6.75h-2l-1 2-2-5-2 2-2-3-1.312 1.438C174 405 174 405 171 406l1 4c-1.75 1.125-1.75 1.125-4 2-2.25-.875-2.25-.875-4-2l1 8-2-1-2 6-6-3v-2h-2v7l-3 1c-1.328 3.143-.873 5.509-.062 8.75l.589 2.422L151 439l-3-1-1-6h-2l1 1.625c1.227 2.914 1.142 5.244 1 8.375h-2l2 1-1 3-3-3v8l-5-1 1-13-3 5 2 3-2 3 1 3-2 3-2-6-3 1v8c-2.772-3.118-3.217-4.878-3-9l-1-2 1-2h-2l.07 2.336.055 3.039.07 3.023C125 455 125 455 123 457l-1-9-2 2h-2v-3h2v-5a863 863 0 0 0-2 4.375l-1.125 2.461C116 451 116 451 116 453h2v3l-2 2-1 3h-2l-2 1c-.545-4.085-1-7.873-1-12l-3-2v4h-2l2.062 1.688L109 456c-.25 2.75-.25 2.75-1 5h-3l-1-4-1 1c-2.391-2.391-2.597-3.696-3-7l1-3h-2l1 8h-2l.688 3.188c.344 4.2-.2 5.528-2.688 8.812h2l1 9h-4c-2.664-6.393-2.664-6.393-3-9a89 89 0 0 1 2-4l-1-2 2-1c.625-3.062.625-3.062 1-6l-3-1 4-1-3-1-1-5h-2v5h-2l2 7h-3l-2-8h-2l-3 9-2-1 .508-1.723c1.477-5.6 1.113-8.656-.508-14.277 1.375-2.937 1.375-2.937 3-5h-2l-1 3c-1 1-1 1-3 2v2h2l2 8-2 1c-2.04-4.93-3.407-8.58-3-14l-2.375.562C70 441 70 441 68 440v-3l-3 2-1-6c-1.414 2.639-2.372 5.071-3 8l-4 1c-3.523-4.514-4.457-7.283-4-13l-2 4v-2l-2-1h2l-2-8-.875 1.75L45 430h-2l.062-3.688c.009-2.532-.125-4.625-.624-7.124C42 417 42 417 43 414l-4 2v-3c-1.231 2.463-1.072 4.28-1 7-1.5-1.25-1.5-1.25-3-3v-4h-2l-1-7h-2l.938-1.812C32 402 32 402 33 399h-2v-2h2c-1.75-3.875-1.75-3.875-4-5l-1-1v2h-2l.562 1.75c.478 2.457.195 3.894-.562 6.25l-2.75-1.562C20 398 20 398 17.625 398.312L16 399l2-4-4-1 2 9-2-2-2 4 3 1-2 7-4-1c.375-2.438.375-2.438 1-5l2-1H9c1.875-4.75 1.875-4.75 3-7-3 2-3 2-4 4-2.092-4.431-2.092-4.431-1.625-7.312L7 394l-1.812 1C3 396 3 396 0 396l2-1-2-1V227l5-1-.289-2.117-.336-2.758-.352-2.742L4 216l2-2 1 8h5l-2 3c1.875-.25 1.875-.25 4-1a90 90 0 0 0 2-4l3-1c1.188-2.562 1.188-2.562 2-5l.812 1.875C23 218 23 218 26 220l3-1v-3h3v-2h2v5l1-1a175 175 0 0 1 4-2l2 4h-2l2 4 1-8 3-1 1 3v-5l5 5-3 8c2.186-2.186 2.422-3.073 3.062-6 .493-2.212.921-3.967 1.938-6l6 7c3.837-.959 4.597-1.236 7-4 1.342 2.684.632 4.119 0 7v5l3-7h3l1-4 2 1v7l.938 1.75c1.139 2.413 1.625 4.627 2.062 7.25l-.125-3.75c-.012-3.266.268-5.465 2.125-8.25a101 101 0 0 1 2 6l-1 2 3-2-.5-1.812C83 225 83 225 83 222c2.319 1.739 3.823 3.058 4.371 5.977.067 2.148.067 2.148-.371 6.023l-3 2 1 2c1.875-.125 1.875-.125 4-1a169 169 0 0 0 2-6l3-1 1 3h5l1 3h-3l1 4h2l1 5h2l-1-5 5 1-1 6 4 1 2-5c2 0 2 0 3.625 1.375C118 246 118 246 118 248h-2v2l2 1-4 1h2l1 4v-4l4 2-.289 1.863-.336 2.449-.352 2.426C120 263 120 263 122 266l2-1h1l.113-1.898.199-2.477.176-2.461C126 256 126 256 129 254a101 101 0 0 1 3 6l-1 2-2-4-1 4c2 1 2 1 4 1v-5l4-2-.219 2.371-.281 3.067-.281 3.058C135 267 135 267 135 268l2-2 2 2 2-1 .375 1.812C142 271 142 271 144 274l2-6h1v12l3-1 .148-1.898.227-2.477.211-2.461C151 270 151 270 153 268l-.254 2.992-.308 3.883-.317 3.867C152 282 152 282 153 284l-1 2-3-1-1-3v2l-.188 3.5.188 3.5 3 2-1-2c.438-2.125.438-2.125 1-4h2l1 7 1-3h2v7l2-3 1.375 2.875C162 301 162 301 164 303l2-1 .402 1.715.536 2.223.527 2.214C168 310 168 310 169 311c-.438 2.062-.438 2.062-1 4 2-1 2-1 4-4-.188 2.375-.188 2.375-1 5-2.562 1.312-2.562 1.312-5 2h3l1 2 1-3 2 1 1 3 3 1c1.75 1.125 1.75 1.125 3 3-.312 3.687-.312 3.687-1 7l3 1 1 9 2-2-1-3 3-1 .375 2.25c.625 2.75.625 2.75 1.813 4.812.812 1.938.812 1.938-.063 4.188L188 349l3-1 2 1-1 4h3l1-2h2l-1 4-4-1 1 7 1-4h2v5l2-2c3.117 4.337 3.56 7.804 4 13l1-1h2v-2h-2l1-3 5 2 1-7c3 0 3 0 4.688 1.312C217 365 217 365 217 368c3-2 3-2 4-5 2.062-.688 2.062-.688 4-1l-1 2 2 1 2-4v5h2l1-2 3 2-.438-2.5c-.615-3.827-1.098-7.652-1.562-11.5l3 1v2l1.812-1c2.188-1 2.188-1 5.188-1l2 3 2-1v-7l3 2v-2h2l2 3h3c0-1 0-1-1.5-2.562L253 347l4 1-.438-1.938c-.734-4-1.148-8.017-1.562-12.062h2l2 9 1-2h2l2 3 4-4 2 4 1-5h3c.092-5.389.105-10.701-.5-16.062-.544-4.931-1.061-9.993-.5-14.938l2-2q.505 3.124 1 6.25l.562 3.516C277 319 277 319 277 323l1 2h-3l2 5 2-1v-4l4 2-1 7 4 1 2-5h3l1 2c2.062 1.125 2.062 1.125 4 2l-.5 2.062c-1.035 6.082-.349 11.888.5 17.938l2-3c.082 3.044-.024 5.072-1 8 .937 2.187.937 2.187 2 4l-.5-2.5c-.384-2.688-.514-4.889-.438-7.562-.057-3.64-.459-5.732-2.062-8.938h2l1-3h2l-1-3-3 1v-5h2v2h3l-1.5-1.312C299 333 299 333 299 330l3-1v3c5.783-4.777 7.153-8.614 8-16h2v-2l-4 1-1 4q-.542-2.685-1.062-5.375l-.598-3.023C305 308 305 308 306 306l-1-3 2-3v2h2l-1 8 3 2 2-7 5 5-3 4-2-1v2h2c.687 1.812.687 1.812 1 4-1.438 1.75-1.438 1.75-3 3h2l-.125 2.125c.142 3.259.992 5.831 2.125 8.875h-2l1 3h-2l1 3c2.913-5.573 4.063-9.756 4.5-16 .39-5.566.39-5.566 1.062-8.211.597-2.439-.051-4.36-.562-6.789l1-2c.359-1.996.695-3.995 1-6h3l1 1v-6l3-1-1 5 2 1v5h-2l1 6h2l1 3-4-1 1 3 2-1v4l3-2 2 4-1-5h-2l2-4 1 1v-2h-3c-.125-2.375-.125-2.375 0-5l2-2-1.062-3.25c-.905-3.616-.854-4.429.062-7.75-.937-2.25-.937-2.25-2-4l2-1c.407-2.322.744-4.657 1-7l4 1v7l-3-1 1.938 2.688c1.87 3.004 2.656 4.863 3.062 8.312h-2v4h3c1.491 4.473 1.491 8.527 0 13h-2l1 3a75 75 0 0 1-1 5v1q-.492 3.501-1 7l4-1c0-2.84-.403-5.237-1-8l4-1c-.478-2.229-.897-3.848-2.188-5.75-1.126-3.121-.229-5.163.778-8.25.475-2.318.131-3.771-.59-6l3-1v-2l2 1v3l-1 1 3 1 3 2 3-1v2h3l-1-5h3v2h2c1.625 1.5 1.625 1.5 3 3l.25-2.875c.69-5.015 2.753-9.51 4.75-14.125l-3-1 2-3a508 508 0 0 0 2-6l1-1-5-2 2-2h3l-2-6h2l1-3c1.351 2.701 1 5.008 1 8l1 2c-.281 2.008-.611 4.01-1 6h-2l1.488 1.176c2.019 2.436 1.821 3.893 1.7 7.012l-.083 2.73L377 296h2v4h2c-.573-2.867-.861-3.861-3-6 .375-1.938.375-1.938 1-4v-3c.231-1.548.505-3.09.812-4.625l.458-2.414L381 278l3-1-1 4 2 1-1.062 2.312C383 287 383 287 384 290l2 1h-3c-.767 7.668-.767 7.668 1.113 10.934 1.387 1.629 1.387 1.629 3.887 4.066l2-3h2v7l-3 1v2h3l-.062 2.938C392 319 392 319 393 320q.294-2.123.562-4.25l.317-2.391c.123-2.396-.259-4.061-.879-6.359-.122-2.675-.045-5.32 0-8l-2-1h2l-1-3h3l1 2h2v-6h2v-2h2c1.044 3.133.934 3.99 0 7l2 1c0 4 0 4-2 7-.125 2.438-.125 2.438 0 5 0 4 0 4-1 7l3-1v2l3 1 1 2-1-4h-2v-2h2l-1-3-2-1 1-3h2v-3h3l.75 2.438L412 309a70 70 0 0 0 4 1c1.25 2.062 1.25 2.062 2 4-3.875-.875-3.875-.875-5-2v4h3v2h3c.664-3.17 1.092-5.553.438-8.75L419 307l2-2c.414-2.602.414-2.602.625-5.625l.227-3.039L422 294h2l-.125 2.312C424 299 424 299 426 302l1.375-2.438C429 297 429 297 431 296l1 6h-2l.5 3.25c.569 4.27.5 8.454.5 12.75-1.938-.312-1.938-.312-4-1l-1-3v2c-.84 6.84-.84 6.84-2 8l1 2h-2v2l3-2c.188-2.625.188-2.625 0-5 2 1.375 2 1.375 4 3v2c1.812.625 1.812.625 4 1l3-2v2l4 2 4-5-.938-1.812C443 320 443 320 442 317c.938-2.688.938-2.688 2-5l1 3h4v8c2-1 2-1 3-3h-2l-1-7-3 1c.875-7.75.875-7.75 2-10q.543-3.494 1-7c2.724 2.353 3.814 4.625 5 8h2v-2h2l-2 4 1 1c1.506-1.964 2.891-3.783 4-6l-.938-1.875C459 298 459 298 459 294c1.875-1.625 1.875-1.625 4-3l2-2 1 3 2 1v-2l-2-1 1-1.875c1-2.125 1-2.125 1-4.125h3l1-3c.553 2.076 1 3.844 1 6h6l1 2-2 3 1 3a99 99 0 0 1 0 5l3-1v2h-2l-1 3v-2l-4 1 2 1-1 1 1 2h2l1-2 3 3 1-5h5l-1-3h2l1-3-2-3c-.047-2.41-.047-2.41.25-5.062l.266-2.661C490 284 490 284 492 282a89 89 0 0 1 6-1c1.231 6.4 1.231 6.4.062 9.438L497 292l-3-1 1-3c-.437-2.187-.437-2.187-1-4h-2l1 2.812c1 3.188 1 3.188 1 6.188l1 2h4c2.739-3.424 3.116-5.726 3-10l2-2-3 1-2-3h2l-1-5h-2v-2l6-1-1-3 1-2c.359-1.996.695-3.995 1-6l2 1v3h2v2l-1 1h2v-8c2 2 2 2 2.125 5.625L512 270l2 1 2-2-3-1c.973-3.272 1.658-4.745 4.438-6.812C520 260 520 260 523 260l1 2 3-1v-3h-2a129 129 0 0 1-1-6l1-1-3-3 1-2h2l1-3h2l-1-5 2 1-1-9h3l.438 2.438C532 235 532 235 533 236l1-6 2 1 1-2-2-1v-2h2v-2l-3-1 1-2 6 3-1-10 4-1v-4l5 2c2-6.75 2-6.75 2-9h-2l1-6 4-1v-7l4 1v-6h2l.375 3.438L561 190l2 1-.688-3.812c-.512-3.91-.512-3.91 1.126-6.188l1.562-1 2 3 2-1v-3h2v-3h-2v-2l8-1v-2l4-4 1-3 2-2 2 5c3.467-4.81 5-8.099 5-14m-8 14 1 2Zm4 1 1 3Zm27 2v2l2-1zm-34 1v3Zm4 0 2 2v-2zm12 1 2 3v-3zm11 0v2l3-1zm4 0v4l-4 1c3 2 3 2 6 2l-1-7zm-39 2 1 4 1-4zm28 0 1 3Zm-17 1 1 3v-3zm-7 4 1 4Zm0 6 1 3Zm53 0 1 2Zm-58 1v3Zm56 2 1 2 1-2zm-3 1 1 3Zm6 1-2 4 3 3c.625-1.812.625-1.812 1-4zm-72 1-1 2 4-1zm76 1 1 3 1-3zm-78 1 2 4v-3zm0 4v5h3l1-2h-2l-1-3zm13 0 1 2Zm63 0-1 7h2l1-7zm-80 2-1 3h2zm83 2 1 2Zm5 0 1 3Zm-4 2v2h2v-2zm9 0-1 4 2-1zm-5 2 2 2v-2zm-85 1 1 2Zm80 1 1 2 1-2zm7 0v3Zm6 0 1 2Zm-4 1v3Zm-8 1 1 2Zm11 0 1 2Zm-96 3 1 3Zm96 0-1 5h2l1-5zm-99 2v3l2-3zm-501 3-2 4 2 1 2-4zm-27 3-1 3 3 1 2-3zm12 0-2 3 3-1zm3 0 1 2Zm508 0 1 3v-3zm-516 2 2 4 1-3zm36 0-2 4 2 2c1-1 1-1 1.062-3.562L64 222zm-46 1 1 2Zm7 0v2l2-1zm623 0 1 4 2-2-1-2zm-621 2 1 2Zm25 0 1 2Zm487 1v2h2v-2zm114 0 2 3v-3zm-2 1 1 2Zm-108 1 1 2Zm-479 1-1 5 3-1-1-4zm476 0v2h2v-2zm115 0v2l2-1zm-111 1-1 3h2zm-5 2 1 2Zm-457 2-1 3h2zm-12 1 1 2Zm26 0 2 2v-2zm-4 1-2 4h2l1-4zm2 0v3h2v-3zm441 1c-2 3-2 3-2 6h2l1-6zm-455 1 1 2Zm17 1 1 2Zm-9 1v3l2-2zm575 0v6h2v-6zm-564 3-1 4 2 1 1-4zm429 1-2 4 2 2 3-5zm-423 1v3h2v-3zm430 0 1 2Zm-444 1 1 2Zm5 1v2l2-1zm19 0 1 2Zm417 0 1 4 1-3zm-422 3 1 3Zm418 0c-1.125 4.75-1.125 4.75 0 7l2-1-1-3 2-1h-2zm137 1 1 2 1-2zm-552 1v2l2-1zm555 0 1 2Zm-559 1-1 3 2 3c.625-1.875.625-1.875 1-4zm423 0 1 2Zm134 1 1 3 1-3zm-584 2 1 2Zm30 1 1 3Zm3 0 1 2 1-2zm550 1v3l2-3zm1 2v5h2v-5zm-138 1 1 2Zm-9 1-2 4 2 1 2-5zm4 0-1 2 2 3 1-3zm152 3v3h2l-1-3zm-155 1-1 2h2zm-391 1 1 2 1-2zm397 0 1 2Zm155 0v2l3 1-1-3zm-164 1 2 2v-2zm157 1-1 5h2l1-4zm12 0 1 2 2-1zm-561 1 1 2 1-2zm399 0 1 2Zm160 0v2l-2 1h3zm-175 1 2 7 2-1-2-6zm-383 2 1 2Zm10 0 1 2Zm4 0 1 4v-4zm376 0v2h-2l1 3c1.5-1.375 1.5-1.375 3-3v-2zm159 1 1 2 1-2zm-167 1 1 3 1-3zm-133 1 1 2Zm130 0 1 3Zm173 0v2l3-1zm-2 1 1 2Zm-549 1 1 2Zm377 1 1 3Zm5 0 1 2 1-2zm168 0v2l3 1v-3zm-164.625 2.375C510 283 510 283 510 285h3l2-5c-2 0-2 0-3.625 1.375M682 280l1 3Zm-8 2v2l2-1zm13 0 1 5-2 1 1-4-2 1v5l4 1c1.125-2.25 1.125-2.25 2-5-.875-2.312-.875-2.312-2-4zm-547 1 1 2Zm538 0 1 2Zm-161 1 1 3Zm-371 1 1 2Zm547 0c-.688 1.625-.688 1.625-1 4 1.438 3.25 1.438 3.25 3 6 1.231-3.694.644-6.206 0-10zm-178 1 1 3Zm-141 1 1 2Zm96 0v6h2l-1-6zm35 0 1 2Zm-28 1-1 4 2-4zm32 0 1 2Zm-3 1 1 2Zm-362 1 1 3v-3zm329 0 2 3v-3zm213 1 1 3 1-3zm-170 1-1 3 2 1zm-54 2v6l2 1 1-3 2-1-1-4c-2 0-2 0-4 1m8 0 1 8h-2l-1 7 5-1c1.119-3.356.692-5.615.191-9.059-.215-2.187.037-3.883.809-5.941-2 0-2 0-4 1m21-1 1 2Zm13 0 1 2Zm-169 2v4l3-1v-2zm40 0v3l-2 1v3h2l1 5c1-2 1-2 .5-4.5s-.5-2.5.5-4.5zm93 0 1 2Zm34 0 1 2 1-2zm-348 1c-2 3-2 3-1.625 5.688L153 304c2-2 2-2 2.125-5.125L155 296zm217 0v2l2-1zm105 0 1 2Zm217 0 1 2Zm-545 1v3h2l-1-3zm246 0 1 4 1-2zm80 0 1 4 1-3zm22 0-1 6 3-4zm8 0 1 2Zm14 0-1 2h2zm7 0 1 2Zm-95 2-1 2h2zm35 0 1 3Zm33 0 1 4Zm12 0v2h2v-2zm12 0 2 2 1-2zm180 0 2 2v-2zm15 0 1 2Zm-346 1v3l2-1zm-48 1c-.125 2.875-.125 2.875 0 6l2 2 1-6h-2zm55 0-1 4 3-3zm113 0v2h2v-2zm22 0v2l2-1zm12 0 1 2Zm177 0c-1.884 3.265-2.493 6.281-3 10h2l2-10zm-555 1 1 2Zm13 0 1 4Zm236 0 2 4 1-3zm299 0 1 2Zm-368 1 1 2Zm138 0v3h-2l-.375 1.938L462 310l-2 1 4 4a688 688 0 0 0 1.5-4.312l.844-2.426C467 306 467 306 467 303zm24 0-1 2 2 3 1-2zm35 0 1 2Zm-177 1 1 2Zm25 0 1 3Zm10 0c-.625 2.375-.625 2.375-1 5l2 2 3-2zm45 0c-1 1-1 1-1.062 3.562L426 310l2-1c.625-2.562.625-2.562 1-5zm24 0-2 2c.375 2.625.375 2.625 1 5h2l2 4-.5-2.875C453 309 453 309 453 307l-1-3zm43 0v2l-2 2 2 2c1.5-1.375 1.5-1.375 3-3v-2zm17 0v4h2v-4zm4 0 1 2Zm12 0v2h-2v2l3-1zm-365 1 1 2Zm174 0 1 2Zm34 1 1 2Zm-48 1 1 3Zm12 0v3h2l-1-3zm4 0 1 3Zm11 0v6l2-2c-.375-2.125-.375-2.125-1-4zm25 0 1 3h3v2l3-1-3-3-2 1v-2zm86 0 1 2Zm14 0 1 2Zm5 0-1 2 3-1zm20 0-1 2h2zm44 0 1 2Zm-390 1 2 3v-3zm6 0 1 2Zm5 0 1 3 1-3zm208 0 1 3Zm51 0v6l2-4zm-70 1-2 5 4-2zm9 0-1 3 3 3v-5zm47 0v5l2 1v-5zm75 0 1 3v-3zm28 0v2l2-1zm199 0v5l2-2v-3zm-387 1v7l2-1c.625-3.062.625-3.062 1-6zm148 0 1 2 3-2zm218 0 1 2Zm-352 1 1 2 1-2zm9 0-1 6 2-3zm22 0v2h2v-2zm4 0v5l3-1-2-1zm2 0 2 2v-2zm9 0v3h2l-1-3zm85 0 1 2Zm9 0-1 7 2-1v-6zm9 0-1 2h2zm4 0 1 3 3-1-1-2zm19 0 1 4Zm192 0 1 2Zm-394 1 1 2Zm90-1-2 1v2l3-1zm59 1 3 2v-2zm24 0 1 2 1-2zm-103 1c-.125 4.75-.125 4.75 1 7 .04 1.666.044 3.334 0 5 2-2 2-2 2.047-4.129l-.297-2.433-.266-2.442L380 314zm4 0-1 2h2zm89 0 3 3 1-2zm42 0 1 2Zm193 0 2 2v-2zm-542 1 1 2Zm174 0v5h1v-5zm20 0 1 3Zm40 0c-.8 3.287-1.097 4.71 0 8l5-1-3-2c-.688-2.625-.688-2.625-1-5zm89 0c-.625 1.812-.625 1.812-1 4l2 3 1-6zm8 0 1 2Zm21 0 1 2Zm3 0 1 2Zm-108 1-1 2h2zm71 0 2 2v-2zm10 0-1 2 2 3 1-5zm47 0 1 3Zm-264 1 1 2Zm38 0 1 2Zm41 0 1 3Zm14 0v2l2-1zm85 0c-.625 1.875-.625 1.875-1 4l2 2 1-6zm6 0-1 5 3-1-1-4zm46 0 2 3 1-3zm18 0 1 3Zm-174 0-2 2 1 3h2v-5zm8 1v2h-2v2h2l1 3 1-3h3v-2zm6 0 2 1v2h2l-1-3zm12 0-2 2 1 3 3-5zm49 0 1 2Zm42 0-1 2h2zm5 0-1 2 4-2zm42 0-1 4 5-1v-2zm195-1-5 2 2 3v-3h2v5h2c1-3 1-3 .062-5.188zm-380 2 1 2Zm55 0v2h2v-2zm72 0 1 2Zm44 0-1 2h2zm20 0v4h2zm36 0 1 2Zm-231 1 2 2v-2zm64 0 1 2 2-1zm26 0 1 2Zm63 0 1 2Zm3 0v2l2-1zm16 0v8l4-2-3-6zm49 0 3 2v-2zm-379 1v7c3-3.625 3-3.625 3-7zm185 0 1 2Zm18 0 1 3 2-1zm94 0 1 2h2v-2zm62 0 1 2Zm-134 1 1 2Zm3 0 1 2 3-1zm11 0-1 7h4l1-3h-3l1-4zm8 0v3l2-1zm54 0 1 5h1v-5zm17 0c-.625 1.875-.625 1.875-1 4l2 2 1-5zm50 0 1 2Zm-360 1v5l2 1v-5zm159 0-1 2h2zm26 0 2 2v-2zm6 0-1 2h2zm24 0 1 2Zm20 0 1 2Zm11 0 1 3Zm94 0 1 2Zm-179 1 1 2 1-2zm19 0 1 2Zm18 0 1 2Zm44 0v3Zm110 0 1 2Zm13 0 1 2Zm182 0c-1.619 2.572-2.044 3.677-1.625 6.75L720 332h2v-9zm-550 1 1 2Zm155 0 1 2 1-2zm42 0v2h2v-2zm14 0 1 3Zm3 0 2 3v-3zm25 0 1 2Zm45 0v2l2-1zm17 0 1 2Zm19 0c-2 5.75-2 5.75-2 8h2l3-8zm18 0 1 4 1-4zm3 0 1 2 1-2zm4 0-1 2 3-1zm30 0 1 2Zm-223 1 1 3Zm9 0 1 2 1-2zm26 0v2h2v-2zm19 0 2 4v-4zm12 0v4l-2 1 4-1v-4zm4 0 1 2Zm3 0 1 2 1-2zm3 0 1 2Zm13 0 2 3v-3zm41 0v2l2-1zm8 0 1 2Zm3 0 1 4 1-3zm16 0v2l-2 1 3 1zm48 0 1 3v-3zm36 0 1 2Zm-215 1-1 4 2-1zm12 0v2l3-1zm4 0 1 2Zm15 0 1 3v-3zm67 0v2h2v-2zm22 0 1 3h2l-1-3zm4 0 3 2v-2zm40 0c-1.245 2.491-.777 3.411 0 6l2-1-1-5zm5 0 1 2Zm5 0 1 2 1-2zm17 0 1 2Zm4 0 1 2Zm163 0 1 2 1-2zm-323 1 1 3 2-2zm31 0 1 2 1-2zm101 0 1 2Zm-206 1-1 5 2-1zm91 0 1 2Zm10 0 1 2 1-2zm8 0 1 2Zm8 0 2 3v-3zm9 0 1 4Zm9 0 1 2Zm41 0c-1.125 2.25-1.125 2.25-2 5 .875 2.312.875 2.312 2 4 1.065-3.196 1.074-5.657 1-9zm11 0 .062 2.375C497 333 497 333 496 335c.121 1.945.121 1.945.438 4.125L497 343l2-1-1-8h2l-1-6zm3 0 1 2 1-2zm36 0v2l3-1zm192 0 1 2 1-2zm16 0 1 3v-3zm-437 1 1 2Zm20 0 1 3v-3zm4 0 2 2v-2zm5 0 1 2Zm32 0 2 2v-2zm11 0 1 2Zm14 0 1 2Zm3 0 1 2 1-2zm38 0 1 2Zm42 0 1 2Zm29 0 1 3v-3zm14 0 1 2Zm10 0 1 2Zm197 0 1 2Zm5 0 1 4 2-3zm-419 1-2 7 3-1c.812-1.938.812-1.938 1-4zm11 0c-1 3-1 3 0 6l1-6zm11 0 1 2Zm70 0v6l1-4h2l-1-2zm12 0v2l2-1zm31 0 2 2v-2zm18 0-1 4 3-3zm36 0 1 3Zm15 0 1 3v-3zm-163 1v3l2-2zm3 0 1 3Zm21 0 1 2 2-1zm36 0-2 3 4 1v-4zm43 0 2 2v-2zm37 0-1 3 2 2 1-3zm250 0 1 2Zm-565 1 1 3Zm209 0-1 3h2zm40 0-1 2 3-1zm7 0-1 5 3 1v-2h-2l1-4zm3 0 1 2Zm22 0v2l3 1 1-3zm21 0 1 3 1-3zm50-1-2 2h3zm178 1 1 2Zm15 0-1 3h2zm17 0 1 3Zm-564 1 1 3Zm100 0 1 2Zm2 0 2 9 2-1v-5l-3-1zm11 0-1 4h2l1-4zm18 0 1 2Zm40-1-2 2 4 1-1-3zm29 1v2l3 1-1-3zm16 0v2h2v-2zm75 0 1 2Zm3 0 1 4Zm42 0v3h2l-1-3zm45 0 1 4Zm163 0-2 5h2l1-5zm8 0 1 2 2-1zm16 0-1 6h2l1-5zm-571 1 1 4 1-2zm145 0 1 3Zm11 0 1 3 2-4c-1 0-1 0-3 1m95 0 1 2Zm18 0 1 2 1-2zm32 0 1 3 1-3zm4 0 1 2Zm24 0 3 3-1-3zm4 0v2l2-1zm9 0 1 3Zm15 0-2 2 3 1 1-3zm10 0 1 4 2-2h-2zm3 0 1 2Zm191 0v2h2v-2zm-430 1 1 2Zm22 0v2l2-1zm31 0-1 3h2zm12 0-1 4 2-4zm11 0 1 2 1-2zm35 0 1 2 1-2zm24 0 1 2Zm11 0-1 5 2-3zm38 0v2l4 1v-2zm12 0c-1.231 5.415-1.231 5.415-.062 8.375L501 345c1.381-2.763 1.191-4.947 1-8zm20 0 1 4 1-4zm-244 1a250 250 0 0 0-4 6c1.938-.75 1.938-.75 4-2 .75-2.125.75-2.125 1-4zm15 0-1 3 3-1zm96 0-1 2h2zm7 0 1 2Zm47 0 1 2Zm40 0 2 3 1-3zm53 0 1 2Zm14 0 1 2Zm-370 1 1 2Zm100 0-1 2h2zm8 0v2h2v-2zm36 0 2 3v-3zm15 0 2 2v-2zm4 0v3h4v-3zm9 0 1 3 1-3zm4 0 1 2Zm11 0 1 2Zm148 0 1 3h2v-2zm25 0-1 4 3 2v-6zm-203 1 1 3v-3zm54 0 1 2Zm27 0 1 3 2-1v-2zm28-1-2 2 3 1zm60 1 1 4 2-1-1-3zm14 0-1 6 2-1c.625-2.562.625-2.562 1-5zm37 0 1 2Zm180 0 1 4Zm-559 1 1 2Zm133 0 1 2Zm9 0 4 4-1-4zm30 0 1 2Zm10 0 1 2Zm38 0 1 2 1-2zm60 0 1 2Zm27 0 1 2Zm4 0 1 4 2-1-1-3zm24 0-1 4 4-1c-1-2-1-2-3-3m-225 1 4 2v-2zm27 0 1 3Zm3 0 1 4v-4zm50 0v2l2-1zm3 0 1 2 1-2zm7 0 2 2v-2zm27 0 1 2 1-2zm31 0-1 2 3-1zm14 0 1 2Zm12 0 1 2 1-2zm11 0 1 4 2-1v-3zm64 0 1 2Zm32 0 1 2Zm164 0 1 2Zm-447 1v2h2v-2zm196 0v3h2v-3zm28 0-3 5 4-1zm7 0-1 2 2 2zm36 0 1 2Zm-261 1 1 2 1-2zm47 0-1 3h2zm13 0 1 2Zm81 0 1 2 1-2zm12 0v7l2-3zm40 0 1 2Zm59 0 1 2Zm-363 1 1 2Zm7 0v2l2-1zm80 0 1 2Zm4 1 3 3 2-2c2 2 2 2 2 5l2-2v-3h-2l-1-3c-2.084 0-4.098 1.22-6 2m22-1 1 2Zm16 0-2 2v3l2-1c.625-2.062.625-2.062 1-4zm3 0v5l1-2 2-1zm9 0 1 2Zm107 0 1 2Zm9-1-2 1v2l3-1zm11 1-1 2h2zm14 0 1 2Zm4 0v2h2l-1 3h2v-5zm10 0 1 2Zm-152 1v2l2-1zm16 0 2 3v-3zm9 0v3Zm14 0 1 2Zm6 0 2 3v-3zm151 0 1 2h4v-2zm22 0 1 3Zm-279 1v7c1.461-2.647 2-3.894 2-7zm27-1-4 2v2h2l1 3 1-3-1-2h2zm2 1-1 4h2zm91 0 1 3 1-3zm47 0v2l2-1zm40 0 1 2Zm33 0 1 2Zm232 0-1 2h2zm-578 1 1 2Zm30 0 1 4Zm114 0v3l2-1zm15 0 1 4 1-3zm3 0 1 3 1-3zm11 0 1 2Zm8 0v2l3 1v-2zm7 0v2l2-1zm47 0 1 2Zm134 0v3Zm18 0c-1.298 5.761-2.257 11.087-2 17l.312-1.938L542 359l3-1-1-3 .562-3c.438-3 .438-3-1.562-6m6 0 1 2Zm-280 1v5l2-4zm5 0-2 2h3l1-2zm48 0 1 2Zm66 0 1 3v-3zm48 0 1 2Zm13 0 1 2Zm24 0 1 3v-3zm27-1-2 2 4 1-1-3zm4 1 1 3Zm34 0-1 3h2zm-373 1 1 2Zm100 0v2l2-1zm61 0-1 2h2zm17 0-2 4h3zm21 0 1 2Zm61 0 1 2Zm108 0 1 3Zm191 0 1 2Zm-677 1 1 2Zm212 0v3Zm33 0 1 2 2-1zm28 0 1 3Zm137 0 1 2 1-2zm-291 1 1 2Zm112 0-1 3 3-1zm22 0 1 2Zm23 0 1 2 1-2zm15 0 1 2Zm163 0 2 2v-2zm-312 1v3h2l-1-3zm123 0 1 2 1-2zm75 0 1 2Zm78 0v5l7 1-4-4 2-1zm122 0 1 2Zm-323 1 .125 2.375C264 357 264 357 262 359l1 3 1 4 3-11zm18 0 1 2Zm5 0v5h2v-5zm18 0 1 2Zm86 0 4 1Zm33 0 1 2Zm108 0 2 2v-2zm18 0 1 2Zm6 0-1 2 3-1zm178 0v3Zm-463 1 1 2Zm30 0-1 2h2zm24 0v5h1v-5zm22 0 1 3v-3zm43 0 1 2Zm5 0 1 2Zm46 0 1 2Zm142 0 1 2Zm-330 1-1 3h3l-1-3zm3 0 1 6h2l1-6zm27 0 1 2Zm57 0v6h1v-6zm64 0-1 3h2zm56 0v3l2-1zm12 0 1 2Zm96 0 2 2v-2zm8 0 1 2Zm-335 1 1 2Zm157 0 1 2Zm50 0 1 2Zm133 0 1 2Zm-346 1v2h2v-2zm49 0 1 2Zm8 0v2l2-1zm66 0 1 2Zm30 0 1 2Zm146 0-1 4 2-1zm12 0 1 3v-3zm9 0-1 7 2 1v-3l2-1v-3zm178 0 2 2v-2zm-483 1 2 2v-2zm5 0-1 3h2zm50 0 1 2Zm7 0 1 2Zm71 0 1 2Zm95 0 4 1Zm42 0 1 2Zm40 0 1 4 2-1v-2zm34 0-1 2h2zm-352 1-1 3-3-1v2l5-1zm25 0 1 2 1-2zm7 0 1 2Zm12 0v3Zm15 0v2h2v-2zm45 0 1 2Zm58 0 1 3Zm163 0 1 2Zm11 0-1 5h2v-5zm6 0 1 2Zm-349 1-1 5h3l-1-4 2-1zm12 0v2l2-1zm3 0v3l2-1zm31 0 1 2Zm33 0 1 2Zm105 0 1 2Zm35 0-1 2h2zm115 0 1 5 1-3zm4 0 1 2Zm-305 1 1 5 1-4zm23 0-1 3h2zm46 0 2 2v-2zm51 0-1 2h2zm-142 1 1 2Zm7 0-1 4 3-1zm4 0v3h2v-3zm64 0 1 2Zm93 0 1 2Zm149 0-1 2h2zm3 0v2h-2v3l4-1v-4zm23 0v3l3-2zm-440 1 1 2Zm94 0-1 4 3-4zm50 0-1 4h2l1-3zm116 0 1 2Zm22 0 1 2Zm18 0 1 2Zm103 0c.375 2.938.375 2.938 1 6l2 1c.188-2.375.188-2.375 0-5zm6 0v2l2-1zm25 0 1 2Zm-308 1 1 2Zm6 0v2l2-1zm5 0v3Zm25 0v2l2-1zm127 0 1 2Zm23 0-1 2h2zm87 0-1 2 3 1-1-3zm-358 2c3.75 1.125 3.75 1.125 6 0v-2c-2.463 0-3.852.855-6 2m106-1 1 2Zm4 0 1 4Zm144 0 1 2Zm127 0-1 7 1-2h2v-5zm19 0 1 2ZM8 365v2h2v-2zm189 0 1 2Zm51 0 1 2Zm99 0 1 2Zm34 0 1 2Zm9 0-1 2h2zm40 0 1 2Zm32 0 2 2v-2zm100 0 1 2Zm22 0 1 2Zm28 0 1 2Zm-426 1 1 4Zm41 0-1 2h2zm8 0 1 2Zm17 0-2 5 3-1zm19 0 1 2Zm40 0 3 2v-2zm5 0 1 2 1-2zm232 0 1 3Zm12-1-2 2h3zm17 1 1 2 1-2zm12 0 1 6h1v-5zm-496 1 1 2Zm204 0-1 2h2v3h2l-1-5zm45 0v3Zm239 0 1 2Zm12 0 1 2Zm-396 1 1 2Zm28 0 1 4Zm7 0 2 2v-2zm53 0 1 2Zm36 0 1 2Zm29 0 1 2Zm225 0v3l2-1zm-375 1-1 3h2zm20 0 2 4 1-3zm8 0 1 3Zm89 0 1 2Zm106 0v3l2-1zm181 0 2 2v-2zm-387 1v2l3-1zm39 0 1 2Zm4 0 1 2Zm24 0 1 3Zm42 0 1 2Zm233 0 1 2Zm-219 1 1 2Zm121 0v2l2-1zm110 0 1 4 1-2zm26 0 1 2Zm38 0 1 2Zm-422 1v2h2v-2zm10 0 1 3Zm6 0 1 5 1-4zm67 0v4l3 1-1-5zm76 0 1 2Zm64 0 1 2Zm22 0 1 2Zm118 0 1 2 1-2zm13 0 1 2Zm-295 1 1 2Zm44 0 1 2Zm247 0 1 4v-2l2-1zm-562 1 1 2Zm181 0 2 2v-2zm36 0 2 2v-2zm7 0-1 2h2zm37 0 1 2Zm328 0 1 3Zm-419 1 1 2Zm20 0 1 2Zm9 0 1 2Zm214 0 1 3Zm18 0 1 2Zm122 0-1 2 3-1zm29 0 1 4Zm-419 1 1 2Zm11 0 1 2 2-2zm10 0 1 2Zm44 0 1 2Zm15 0 1 2Zm326 0 1 2Zm-428 1v6h1v-6zm59 0 1 2Zm10 0 1 2 1-2zm61 0 1 5 1-4zm-52 1 1 2Zm15 0v6l2-4zm177 0 1 2Zm154 0-1 8 3-2v-3l2-1h-3zm11 0 2 2v-2zm40 0 1 2Zm-54 1-1 6 2-1v-5zm9 0 1 2Zm35 0 1 4ZM4 380l1 2Zm189 0-1 2 3 1v-3zm7 0-2 5 2 1 1-6zm3 0-1 3h2zm31 0-1 4 2-4zm18 0 1 2Zm32 0 1 3Zm151 0-1 6c2-3 2-3 3-6zm17 0 1 2Zm144 0 1 2 1-2zm3 0 1 3ZM8 381v2l2-1zm16 0v2l3-1zm5 0 1 2Zm4 0 1 2Zm189 0 1 2Zm120 0 1 2Zm77 0 1 3Zm18 0 1 3Zm156 0 1 3Zm17 0 1 3 1-3zM3 382v2l2-1zm45 0v3Zm396 1 1 2 3-3c-2 0-2 0-4 1m10-1 1 2 1-2zm152 0v2l2-1zm17 0v2l2-1zm60 0 1 2Zm35 0 1 2Zm-513 1 1 3Zm386 0 1 3Zm21 0 1 3 1-3zm-602 1 1 4Zm16 0v3Zm6 0 1 2Zm264 0-1 2 3-1zm81 0 1 2Zm266 0 1 2Zm34 0-1 2 3-1zm15 0v3l-2 1 4-1-1-3zm10 0 1 3Zm23 0 1 2ZM2 385l-1 5 2 1v-6zm3 0v6l2 1-1-7zm14 0-1 4 2-1zm128 0 1 2Zm291 0 1 2Zm6 1 1 2 2-1 1 2 1-4c-3 0-3 0-5 1m161-1v3l2-2zm57 0 1 3Zm37 0 1 2Zm-544 1 1 2Zm95 0 1 2Zm3 0 1 2Zm-221 1v2l2-1zm90 0 1 2Zm68 0 2 2 1-2zm392 0 1 2Zm26 0v3Zm3 0 1 2Zm84 0 1 2Zm8 0 1 2Zm11 0c-.625 2.375-.625 2.375-1 5l2 2 2-2c-1-3-1-3-3-5m5 0-.25 2.75c-.842 3.651-1.929 4.884-4.75 7.25h3l2 2c1.471-4.412 2.369-7.483 1-12zm3 0 1 3Zm3 0 1 2ZM9 388l1 2Zm14 0v2h2v-2zm149 0 1 2Zm30 0v3l2-1zm15 0 1 2Zm65 0 1 2Zm15 0 1 3v-3zm137 0 1 2Zm195 0v5l2 1v-2l2-1h-2l-1-3zm6 0 1 2Zm6 0 1 4Zm99 0 1 2Zm-720 1-1 2h2zm10 0 1 2Zm9 0 1 2Zm20 0 1 2Zm74 0 1 2Zm35 0 1 2Zm19 0 1 2 1-2zm18 0 1 3 1-3zm240 0-1 2 3-1zm179 0-2 3 3-1zm29 0 1 2Zm47 0v2l2-1zm-524 1 1 3Zm67 0 1 2Zm41 0 1 2Zm154 0 1 2Zm165 0v3h3l1 2v-3zm41 0v2h2v-2zm80 0-1 4 2-1zm8 0 1 2Zm-720 1 1 2Zm6 0-1 2 3 1 1-2zm6 0-1 4 2 1v-5zm150 0c-1 1-1 1-1.062 3.562L173 397l2 1v-7zm6 0 1 2Zm6 0 1 2Zm25 0 1 2Zm223 0v2l2-1zm230 0 1 3Zm42 0v2l2-1zM8 392v2l2-1zm28 0 1 2Zm172 0 1 2Zm103 0 1 2Zm134 0 1 2Zm175 0 1 2Zm27 0 1 2Zm9 0 1 3v-3zm-645 1 1 6 2-2zm70 0 1 4Zm107 0 1 2Zm5 0v3l2-1v-2zm4 0 1 2Zm425 0 1 2 1-2zm89 0 1 2Zm-663 1 1 4 1-2zm116 0-1 5 3 1 2 2v-7l-3 1zm15 0 1 2Zm22-1-2 2 3 1zm114 1 1 3 1-3zm92 0 1 2Zm228 0 1 2Zm87 0 1 3v-3zm13 0 1 2Zm8 0-1 3h2zm3 0 1 3Zm-556 1 1 2Zm6 0v2l2-1zm7 0v3l-2 1 2 3 2-3zm3 0 1 2Zm29 0 1 2Zm385 0 1 2Zm119 0 1 2 1-2zM8 396l1 3Zm621 0 1 4h-2v5l.312-1.938L629 401l3-1-1-4zm4 0 1 2Zm-597 1 1 3v-3zm6 0 1 3Zm23 0 1 3Zm96 0 1 2Zm31 0 1 2Zm245 0v3Zm184 0 3 3v-3zm124 0-1 4h2zm-574 1v6h1v-6zm6 0 3 2v-2zm40 0 1 2Zm25 0 1 2Zm54 0 1 2Zm436 0 2 2v-2zm-698 1v5l2-2zm5 0 1 2Zm54 0 1 2Zm345 0 1 2Zm172 0 1 2Zm-565 1 1 2Zm119 0-1 2h2zm570 0v5l2-4zm-642 1v7h2l-1-7zm324 0 1 2Zm17 0c-1.044 3.133-.934 3.99 0 7h2l2-4h-2v-3zm-286 1 1 3Zm21 0-1 2h2zm36 0 1 2Zm414 0 1 2Zm12 0 2 2v-2zm-592 1 2 8h2c-.498-3.688-1.101-5.605-4-8m3 0v2l2-1zm7 0 1 2Zm112 0-1 2h2zm3 0-1 2h2zm43 0 1 7 2-2c-.375-2.625-.375-2.625-1-5zm58 0 1 2Zm-190 1 1 4Zm79 0 1 2Zm48 0 1 3 3-2zm419 0 1 3Zm-459 1v6l2-3-1-3zm-115 1v2h2v-2zm13 0 1 2Zm43 0-1 5 2-3zm131 0 1 2Zm195 0 1 2Zm-393 1 1 2Zm97 0 1 2Zm307 0 1 2Zm-401 1 1 2Zm7 0 1 3Zm3 0 1 2Zm19 0-1 2h2zm96 0 1 2Zm-9 1 1 2Zm-37 1v2l2-1zm30 0 1 2Zm-90 1 1 2Zm6 0-1 3 3-1zm46 1 2 4-1-4zm43 0v3Zm65 0v2l2-1zm-170 1v5h2l-1-5zm27 0 1 2Zm21 0v5h1v-5zm51 0v6l3-3-1-3zm12 0v5l2-1v-4zm77 0 1 2Zm-165 1-1 2h2zm8 0 1 2Zm21 0 1 2Zm326 0v3l3-1-1-2zm-373 1 1 2Zm12 0 1 2Zm86 0 1 4Zm-90 1 1 4Zm13 0 1 2Zm32 0 1 3Zm302 0 2 2v-2zm-74 1 1 2Zm-277 1v6l2-1-1-5zm47 0 1 2Zm39 0 1 2Zm-88 1-2 4 3-2zm10 0v3Zm9 1 1 2Zm-5 1 1 3v-3zm8 0 1 3Zm74 0-1 3h2zm-85 1 1 11h2l-.062-2.375C68 428 68 428 69 426h-2l-1-4zm29 0 1 3Zm20 0 1 2Zm2 0 1 2Zm6 0 1 3Zm14 0 1 2Zm-78 1 1 2Zm14 1c-.625 1.875-.625 1.875-1 4l2 2 1-6zm5 0 1 2Zm5 0 2 4 1-4zm17 0 2 2v-2zm32 0v2l2-1zm13 0v5l2 1v-3l2-1-1-2zm-52 1 2 2v-2zm21 0 1 2Zm4 0 1 2Zm-37 1 1 4 1-4zm16 0 1 4Zm40 0 1 2Zm82 0 1 3v-3zm204 0 1 2Zm-300 1 1 2Zm293 0 1 2 1-2zm-359 1c-1.009 3.132-.956 5.097-.062 8.25L57 440h2v-3h-2l.625-3.375L58 430zm2 0 2 3 1-3zm45 0 1 2Zm14 0 1 2Zm9 0c-1 1-1 1-1.062 3.562L125 434l2-1v-5zm-44 1-1 5 1-3 2-1zm38 0 1 2Zm15 0 2 4-1-4zm287 0v3h2v-3zm-352 1v3Zm24 0a351 351 0 0 0-.125 4.812l-.07 2.708C94 440 94 440 96 443c.251-1.413.475-2.831.688-4.25l.386-2.391c-.094-2.987-1.119-4.168-3.074-6.359m8 0v5l2-1zm9 0v3h2v-3zm18 0 1 7 2-1c.625-3.062.625-3.062 1-6zm-41 1c-1.125 2.312-1.125 2.312-2 5l2 3 1-8zm3 0 1 2Zm23 0 1 2 1-2zm108 0-1 2h2zm3 0 1 2Zm26 0 1 2Zm-176 1-1 3 2 3 1-5zm22 0v2l2-1zm313 0 1 2Zm-326 1 1 2Zm51 0 1 2Zm283-2-2 2h-2c-1 3-1 3-.5 4.875.621 2.638.15 4.523-.5 7.125h3l.148-1.898.227-2.477.211-2.461C417 436 417 436 419 434zm2 2v3Zm-348 1-1 3h3l-1-3zm8 0 1 3Zm11 0 1 2Zm15 0 1 2Zm5 0v3Zm11-2v2h-3v2h-2l-1 3 3 2 2-4 1 5h1l.625-3.875.352-2.18L124 434zm271 2 1 2Zm-293 1c-2.136 3.204-2.231 4.019-2.125 7.688l.055 2.449L98 447c2-2 2-2 2.062-4.875L100 439c.5-2.375.5-2.375 1-4zm13 0 1 3Zm13 0c-2.092 4.431-2.092 4.431-1.625 7.312L125 444c2.294-3.441 3-4.723 3-9zm110 0 1 2Zm-131 1 1 2Zm39 0 1 4Zm277 0 1 2Zm-288 0c-2.491 2.491-3.087 4.63-4 8l1 2 4-1v-9zm-50 2 1 2Zm7 0v2h2v-2zm22 0-1 2h2zm290 0 1 3Zm-168 1-1 2h2zm-120 1v2l2-1zm-32 1 1 3 1-3zm3 0 1 2Zm6 0 1 4 1-4zm12 0 1 4Zm6 0 3 2v-2zm307 0 1 2Zm-328 2-1 5 2-2zm27 0 1 2Zm-32 1-1 3h2zm12 0-1 5 4 2-1-7zm15 0-2 2h4v-2zm30 0 1 2Zm93 1v5h2l-1-5zm160 0 1 2Zm12 0 1 2Zm-301 1-1 5 2-2zm11 0-1 2h2zm26 0 1 2Zm261 0 1 2Zm-290 1v6h1v-6zm-28 0-2 2h3zm146 1-1 3h2zm176 0v2l3-1zm-317 1 1 2Zm320 1v2l2-1zm-307 1 1 4Zm130 0 2 4v-3zm-118 1v3l3-1zm277 2 1 2Zm11 0-1 2 4 1zm-290 1 1 3Zm281 1 2 2v-2zm-1 4 3 2v-2zm-296 2 1 3Zm293 0 1 2Zm-6 2 1 2Zm-135 5 1 2Zm-152 2 1 3Zm203 0 1 2Zm77 1 2 2v-2zm10 0 1 3Zm3 0 1 2Zm-137 2-1 2h2zm131 0 1 2Zm4 1v2l3-1zm-144 1v3l3-1-1-2zm134 0v3l2-1zm4 0 1 2Zm2 2 1 3 2-1-1-2zm-133 2-1 4 2-1zm131 2 1 2Zm-5 1v2l2-1zm-1 3 1 2Zm-127 2-1 2h2zm123 0 1 2Zm-116 2 1 2Zm117 0v3Zm6 0 1 2Zm-131 2 1 2Zm8 3 1 2Zm116 0 1 2 2-1zm-118 2 2 4-1-4zm95 1 1 2Zm9 4 1 2 2-1zm-91 1 1 3Zm98 1 1 2Zm-98 3v2l2-1zm88 1-1 2h2zm-88 2 1 2Zm86 0 1 2Zm12 2 1 3v-3zm-19 1c-2 2-2 2-2.125 4.625L343 520c2.36-2.36 2.491-3.779 3-7zm-79 1 1 2 2-2zm74-1-2 2h3zm-43 3v3Zm24 0 1 2Zm-12 2 1 2Zm26 2-1 3 2 1zm3 0 1 2Zm-41 1 1 2Zm1 2 1 2Zm18 1 1 3Zm2 2-1 5 3-2v-3zm17 0 1 3 2-1-1-2zm-44 1v3l2-1zm38 0v3l2-2zm-14 1 1 2Zm18 0v6h3v-3h-2zm-39 1 1 3Zm-9 1-1 4 3-2v-2zm34 1v5h2l-1-5zm-14 2v2l2-1zm-19 2 2 2v-2zm17 0v3h2l-1-3zm18 3 2 2v-2zm3 1v3l2-2z"/><path d="M631 166c2.587 2.587 2.541 4.287 3.062 7.875.51 3.429 1.025 6.779 1.938 10.125h-2l-2-3-2 1c-.8-3.287-1.097-4.71 0-8l-2-1 2-2c.625-2.625.625-2.625 1-5M643 188l2 1-2 9-1-2-2-1zM71 210h1l2 7c-2 2-2 2-4 3-.125-6.625-.125-6.625 1-10M681 243c2.62 2.62 2.708 4.352 3 8-.938 2.375-.938 2.375-2 4-1-1-1-1-1.098-3.504l.036-3.058.027-3.067zM377 249l2 1c.994 3.345 1.103 5.69 0 9h-2a549 549 0 0 1-.562-4.438l-.317-2.496L376 250zM519 251c2 1 2 1 2.938 3.375 1.046 2.585 1.983 3.83 4.062 5.625-3 0-3 0-5-1-1.688-2.375-1.688-2.375-3-5zM359 252h2c.625 2.312.625 2.312 1 5l-2 3-2-1q-.063-3 0-6zM376 260h3v5h2v4l-3 1v2h2v2h-3c-.125-6.75-.125-6.75 1-9l-4 1 1-2h2zM392 262l2 1-1 8 2 1h-3c-1.125-1.625-1.125-1.625-2-4 .875-3.25.875-3.25 2-6M335 265l4 1v8l-2-1v-7zM410 266l4 1c-.812 1.938-.812 1.938-2 4l-3 1-1-3zM468 267l4 2v6l-2 1-.438-2.25A133 133 0 0 0 468 267M382 270h2l1 6-4 1zm0 2 1 2Z"/><path d="m390 271 4 2v3h2v3h-3v3h-2v8h-2zM421 271l2 1 2-1v4h-2v2l-4 1zM462 271l4 2v8l-6-2 2-1zm2 4-1 3h2zM387 273h1c1.333 9.41 1.333 9.41 0 14h-1a891 891 0 0 1-.562-5.875l-.317-3.305C386 275 386 275 387 273M479 274l3 1c.625 2.812.625 2.812 1 6l-2 3zM360 276h1l2 11-4 1c-1.429-8.571-1.429-8.571 1-12m-1 5 1 2Zm2 3 1 2ZM325 279c2 1 2 1 2.688 2.875C328 284 328 284 327 287v3.062c0 2.938 0 2.938-1 4.938l-2-1 .562-1.75c.496-2.547.164-3.782-.562-6.25a452 452 0 0 1-1-6z"/><path d="M353 279v3l1 2c.07 1.519.084 3.042.062 4.562l-.027 2.442L354 293v1c3-1 3-1 4.188-3.062L359 289l2 1v2h-2l1.938 1.562c2.62 3.097 2.756 5.459 3.062 9.438h-2v-2l-3 1c-.688 2.062-.688 2.062-1 4h-5v-2h2l-2-2.938c-2.517-4.333-2.377-8.177-2-13.062v-1h-1c-.369-4.554-.369-4.554 1.5-6.812zm4 16v6l3-2v-3zM428 279h2c.956 4.302 1.425 7.724 0 12 .438 2.188.438 2.188 1 4-2.5-1.562-2.5-1.562-5-4-.581-4.562.002-7.879 2-12m1 2 1 2Zm-2 7 1 2Z"/><path d="M365 282h2l.438 2.312C368 287 368 287 369 290c-1.055 2.596-2.436 4.655-4 7-3-3.75-3-3.75-3-6l2-1-.062-3.438C364 283 364 283 365 282M411 287c4.8 2.462 4.8 2.462 5.812 5.188L417 294l-3-1-1-2-2 4-6-1 2-4 3 1zM450 287c1.996 3.991 2.195 5.7 2 10h-4zM441 288l3 2-1 2.938C442 296 442 296 442 297l4 2v4l-3-3 .438 3.875.246 2.18C444 308 444 308 445 310h-3l-1 7h-2v-2l-2-1 1.5-1.375C440 311 440 311 440 309l-4 2c-1.5-1.375-1.5-1.375-3-3v-2h2l.586-1.793c1.358-4.122 2.735-8.202 4.414-12.207l-2-1v-2zm-2 10c-1.097 3.29-.8 4.713 0 8h3a109 109 0 0 0-1-7zm-2 8 1 3ZM386 292h2c.625 2.812.625 2.812 1 6l-2 3c-1.5-1.375-1.5-1.375-3-3v-2h3zM308 293h1l1 5 3-3c1.238 3.576.749 6.337 0 10h-2v-3l-4-2q-.063-3 0-6zM417 294l1 4h-2v2l3-1c.562 1.938.562 1.938 1 4l-1 1a197 197 0 0 0 0 7h-2l-.438-2.312C416 306 416 306 415 303s-1-3 .438-6.188zM487 293l1 2-2 2h3v2l-2 1-1 2-1-3h-2v-4z"/><path d="M410 296c1.938.625 1.938.625 4 2 .75 3.125.75 3.125 1 6h-2l1 5h-2c-2-5.75-2-5.75-2-8l-1 2-3-1zM438 296l-4 7h-1l-1-7c3-1 3-1 6 0M299 302l1 2 4-1-1 9h-1v-7h-2l.562 2.562c.473 3.715.099 6.768-.562 10.438l-4-2 2-2c.209-2.783.256-4.487-1-7h2zM434 314h2l-.062 2.375C436 319 436 319 437 321h7l-1 6h-4v-2l-2.188.688c-3.593.399-4.994-.514-7.812-2.688v-2l-2-1c3-2 3-2 5-2zm-4 7 3 2v-2zM744 315l6 2-1 4-5-2zM270 319h1l1 18h-3l.496-1.547c.671-3.266.597-6.372.566-9.703l-.027-3.828zM305 319h2l-3 9-3-4 2-3h2zM290 323h3c.687 2.491 1 4.379 1 7l-4-2zM260 332h3l-1 7h-2zM495 349l4 2v2h-2l.5 1.812C498 357 498 357 498 360h-3c-.875-4.157-1.093-6.9 0-11M513 357c3 3.625 3 3.625 3 7a297 297 0 0 1-1 6h2l-1 2-2-1c-.668-2.398-.668-2.398-1.188-5.375l-.542-2.961C512 360 512 360 513 357M491 358l1 3 1 1a175 175 0 0 1 2 4l-2 3c-2.625.188-2.625.188-5 0l2-3-.5-1.938c-.65-2.682.103-3.761 1.5-6.062m1 7 1 2ZM504 360h2v6h-2l1 3-2 2c-1.263-4.293-.63-6.878 1-11M521 363c1.125 3.75 1.125 3.75 0 6h-2l1 3-2 1c-.293-6.055-.293-6.055 0-8zM539 366l2 2 3-1-.625 1.812C543 371 543 371 545 374v3c-3-1-3-1-5-3v-3l-3-1v-3zM553 372l2 1v8h-3l-2-2c1.875-5.875 1.875-5.875 3-7m-1 4 1 2ZM565 374h4v5l-4 1zM549 380l1 3 2 1-1 5h-3v-2h-2l1-3v2h2l-.562-1.875C548 382 548 382 549 380M566 380h3c1 7.75 1 7.75 1 10h-2c-2.429-3.644-2.162-5.712-2-10M562 384h3v3h-3l4 2-2 4-4-1c.875-6.875.875-6.875 2-8M545 388l4 2c-.75 1.938-.75 1.938-2 4-2.125.75-2.125.75-4 1 .875-3.875.875-3.875 2-5zM589 388h5v8c-2.011-2.56-3.628-5.046-5-8M549 392l1 2 2 1-2 1a78 78 0 0 0-2 5h-1c.875-6.75.875-6.75 2-9M588 392h3c.995 3.095.856 4.898 0 8l1 1a99 99 0 0 1 0 5h-3l1-4-3-2-1 3h-2v-7l5-1zM563 395l2.312 1c2.688 1 2.688 1 5.688 1v7h-3l-1 4-4-2 1-2c.04-1.666.044-3.334 0-5l-2-1zm2 3 1 4ZM595 396c2.147 2.147 2.543 3.078 3 6l-1 2 3 1-3 4a270 270 0 0 1-1.562-4.25l-.879-2.391c-.604-2.55-.406-3.912.441-6.359M576 397c1.349 2.698 1 5.016 1 8l1 1a99 99 0 0 1 0 5c-2.179-1.759-2.937-2.694-3.512-5.48l-.176-2.708-.199-2.73L574 398zM18 399l3 1v6l-3 1-2-3 2-2zM22 400l4 2-1 3a195 195 0 0 0 0 7h-2c-1.527-3.055-2-5.58-2-9zM610 409c2.062.438 2.062.438 4 1l-.625 1.688c-.482 2.972.359 4.632 1.625 7.312l-4 1v-5l-2 1q-.063-3 0-6zM182 409l2 1v7l-2-3c-3.125-.188-3.125-.188-6 0 2-3 2-3 5-4zM173 412l1 4-2 1v-2h-2l1 3-2 1-1-6c3-1 3-1 5-1M32 414c2 1 2 1 2.688 2.688.396 2.937-.097 5.424-.688 8.312l-2-1 1-8-2-1zM622 415c1.322 2.645 1.097 4.678 1.062 7.625l-.027 3.039L623 428c-2.112-2.581-2.965-3.658-3.312-7.062C620 418 620 418 622 415M215 428l1 7-2 1-1-5h-2v-2c2-1 2-1 4-1M55 442l3 1c.25 7.625.25 7.625-2 11l-1-7h2zM72 441c1.394 4.181-.291 6.035-2 10-.188 2.938-.188 2.938 0 5h-2l-2 2 .035-2.047.027-2.703.036-2.672c-.09-2.36-.429-4.323-1.098-6.578h3l1 4zM140 457l3 1 1 7-2 1zM82 459h2c.762 4.316 1.161 7.744 0 12l-3-1zM106 461l2 2-1 2 2 1v4h-2v7l-2-1c-1.19-5.754-.952-9.49 1-15m0 6 1 3ZM407 461l1 2 2 1h-3v2l2 1c-.812 2.438-.812 2.438-2 5l-3 1v-2h2l-.625-2.188c-.435-3.258.208-4.895 1.625-7.812M70 462l2 3-3 6h-2c1.875-6.75 1.875-6.75 3-9M129 462c2 2 2 2 2 6l-1.938.312L127 469l-1 3v-5h3zM112 470h2c1.607 3.215 1.057 6.436 1 10l-3-1 1-3a100 100 0 0 0-1-6M262 506h1c.125 2.875.125 2.875 0 6l-2 2 1 2-4-2 1.438-2.312C261 509 261 509 262 506M293 552l2 1v13h-1z"/></svg>